<svg xmlns="http://www.w3.org/2000/svg" xmlns:xlink="http://www.w3.org/1999/xlink" width="87.965mm" height="65.455mm" version="1.1" viewBox="-1 0 100.57 74.838">
 <defs>
  <linearGradient id="linearGradient14623">
   <stop stop-color="#bfc6df" offset="0"/>
   <stop stop-color="#fefcfa" offset="1"/>
  </linearGradient>
  <filter id="filter22633" x="-.41542" y="-.97443" width="1.8308" height="2.9489" color-interpolation-filters="sRGB">
   <feGaussianBlur stdDeviation="3.909012"/>
  </filter>
  <linearGradient id="linearGradient1157" x1="80.323" x2="79.637" y1="176.43" y2="185.02" gradientTransform="matrix(2,0,0,2,-109.77,-295.85)" gradientUnits="userSpaceOnUse" xlink:href="#linearGradient14623"/>
  <linearGradient id="linearGradient1159" x1="70.15" x2="90.47" y1="158.85" y2="153.27" gradientTransform="matrix(2,0,0,2,-109.77,-295.85)" gradientUnits="userSpaceOnUse" xlink:href="#linearGradient14623"/>
  <linearGradient id="linearGradient1161" x1="94.834" x2="102.67" y1="161.44" y2="156.66" gradientTransform="matrix(2,0,0,2,-109.77,-295.85)" gradientUnits="userSpaceOnUse" xlink:href="#linearGradient14623"/>
  <linearGradient id="linearGradient1163" x1="67.474" x2="54.739" y1="161.3" y2="157.49" gradientTransform="matrix(2,0,0,2,-109.77,-295.85)" gradientUnits="userSpaceOnUse" xlink:href="#linearGradient14623"/>
  <linearGradient id="linearGradient1165" x1="79.773" x2="80.048" y1="153.27" y2="148" gradientTransform="matrix(2,0,0,2,-109.77,-295.85)" gradientUnits="userSpaceOnUse" xlink:href="#linearGradient14623"/>
  <filter id="filter1830" x="-.25195" y="-1.3292" width="1.5039" height="3.6585" color-interpolation-filters="sRGB">
   <feGaussianBlur stdDeviation="1.1005779"/>
  </filter>
  <filter id="filter2131" x="-.21352" y="-1.1265" width="1.427" height="3.253" color-interpolation-filters="sRGB">
   <feGaussianBlur stdDeviation="0.92255058"/>
  </filter>
 </defs>
 <g stroke-width="2">
  <path d="m23.848 53.26 51.868 0.0318 23.26 20.94-98.934-0.0982z" fill="url(#linearGradient1157)"/>
  <path d="m23.848 10.74h51.868v42.564h-51.868z" fill="url(#linearGradient1159)"/>
  <path d="m98.974 74.24-23.26-20.94v-42.646l23.538-10.151z" fill="url(#linearGradient1161)"/>
  <path d="m0.042 74.14 23.806-20.874v-42.532l-24.246-10.134z" fill="url(#linearGradient1163)"/>
  <path d="m23.848 10.74 51.868-0.082 23.538-10.151-99.652 0.0986z" fill="url(#linearGradient1165)"/>
 </g>
 <rect x="-.4" y=".60001" width="99.374" height="73.638" fill="none" stroke="#000" stroke-linecap="round" stroke-linejoin="round" stroke-width="1.2"/>
 <path transform="matrix(.9109 0 -.092116 .73092 -48.655 -85.368)" d="m101.79 202.95c-0.0877 0.96959-0.11355-0.17523 0.23841 0.7318 0.19733 0.75138 0.0849 2.1603 1.1755 2.1164 1.2788-0.2361 1.2617-2.2856 2.3745-2.5179 1.894-0.39535 1.386 3.4274 4.2231 4.1402 1.8902 0.47489 1.422-3.2737 1.8459-4.3948 0.42079-1.113 2.0432-0.5069 2.5585 0.41456 1.2048 2.1544 0.24837 5.8216 3.2905 5.1833 2.3448-0.49198 0.5897-4.387 1.8467-5.7537 0.76583-0.83263 2.2346 0.13767 1.6018 1.2043-0.19409 1.0228-0.45284 2.244 0.12946 3.1798 0.72776 0.68297 2.5166 1.0002 2.8358-0.24266 0.35194-2.039-0.18991-2.0113 0.3695-4.0312 0.16899-1.1865-0.23881-0.48337-0.94891-1.4908-0.91659-0.81447-2.1773-1.1921-3.3324-1.5618-2.4522-0.37313-4.9202-0.68232-7.405-0.68695-1.8441-0.0319-3.6953-0.26601-5.5327-0.12811-1.2718 0.0954-4.9015-0.24529-5.2707 3.8377z" filter="url(#filter22633)" opacity=".86154" style="mix-blend-mode:normal"/>
 <g transform="matrix(2 0 0 2 -106.3 -295.48)">
  <rect x="68.036" y="160.77" width="6.6856" height="2.4383" fill="#fff"/>
  <g fill-rule="evenodd">
   <path d="m69.156 162.21c0.01246 0.29348 0.19532 0.54346 0.44852 0.65323 0.24389-0.11263 0.40717-0.36592 0.39576-0.65849-0.01214-0.29348-0.19524-0.54345-0.44842-0.65302-0.24397 0.1125-0.40727 0.36571-0.39587 0.65828z" fill="#00af00" stroke-width=".26458"/>
   <path d="m73.675 162.23c-0.0114 0.29234-0.19529 0.5426-0.4485 0.6522-0.24397-0.11274-0.40717-0.36595-0.39473-0.65858 0.01132-0.29236 0.19524-0.54345 0.44844-0.65296 0.24397 0.11348 0.40717 0.36562 0.39478 0.65934z" fill="#00af00" stroke-width=".26458"/>
   <path d="m74.88 156.5c-0.01349 7e-3 -0.02805 0.0291-0.04027 0.0569-0.0984 0.22222-1.7549 2.3286-2.0042 2.3875-1.1038 0.0206-1.8571 0.0577-2.963 0.14476-0.78846-0.47437-1.324-1.294-1.94-1.973-0.57044-0.67177-0.66643-0.69765-0.79798 0.18497 0.01986 0.13124-0.07749 0.70805 0.33922 2.4154 0.18703 0.76996-0.03727 1.8478 0.01958 2.5694 0.0227 0.5302 0.34605 0.85455 0.46911 1.2308 0.1251 0.38121 0.35242 0.74504 0.4527 1.1596 0.23783 0.60352 0.87127 0.55695 1.3126 0.93533 0.15002 0.23969-0.18809 0.48787-0.41857 0.86699-0.24786 0.1302-0.6522 0.61412-1.0117 0.98933 1.42-0.21728 0.40926 0.0196-0.1974 0.94559 0.56541-0.13229 0.75353-0.23466 0.54166 0.13232-0.10665 0.35137-0.41648 1.2049-0.44558 1.3165 0.33787-0.16327 0.34637-0.43603 0.46831-0.21907 0.38235 0.67283 0.01538 2.0754 0 2.1014-0.2418 0.17042-0.62836 0.23439-0.87765 0.12091-0.36481-0.16748-0.79058-0.39587-1.1917-0.20987-0.42569 0.3048-0.41325 0.89191-0.3855 1.361 0.12938 1.4719 0.99539 1.5256 1.4171 2.9136 0.15719 0.34216 0.28207 0.82074-0.07358 1.0872-0.23437 0.22537-0.59716 0.45691-0.55478 0.82891 0.05977 0.41646 0.5085 0.60989 0.87736 0.6686 0.42066 0.0899 0.85378-6e-3 1.2724 0.10449 0.40005 0.24503 0.64688 0.77631 1.1586 0.81338 0.35851 0.0579 0.73477-0.0185 1.0469-0.20137 0.10747-0.29687 0.51149-0.56648 0.79671-0.34637 0.40741 0.60563 1.357 0.8496 1.9484 0.36991 0.28207-0.28313 0.60352-0.64479 1.0469-0.56324 0.43 0.0238 0.97269-0.0847 1.1513-0.53107 0.13126-0.32568 0.01982-0.75145-0.29025-0.93451-0.29266-0.25112-0.4146-0.72014-0.20878-1.0623 0.51255-1.5316 1.1234-1.8872 1.0303-3.5338-0.0051-0.37094-0.11377-0.86281-0.52282-0.96623-0.45805-0.10634-0.95835 0.23971-1.3446 0.41034-0.24104 0.0505-0.66998-0.0672-0.70096-0.34636-0.09284-0.85162 0.12308-0.79267 0.22545-1.7229 0.13629 0.0352 0.30586 0.16243 0.43815 0.20789-0.18598-0.38468-0.30292-0.9075-0.26879-1.2869 0.0074 3e-3 0.0177 6e-3 0.02378 8e-3 0.17677 0.0712 0.3474 0.0412 0.52604 0.10319-0.15796-0.41646-0.34822-0.88162-0.62206-1.174-0.01244-0.0466-0.03411-0.0982-0.04866-0.14467 0.18703 0.0484 0.29549 0.12485 0.48578 0.16745-0.26461-0.35166-0.59537-0.71017-0.8319-0.87659-0.0085-6e-3 -0.02273-9e-3 -0.03196-0.0154-0.03945-0.059-0.06831-0.11903-0.10454-0.17669 0.07755 0.0225 0.15825 0.0537 0.24074 0.064 0.11377 0.0257 0.15007 0.0124 0.3546-0.0167-0.34004-0.20452-0.55192-0.32541-0.83714-0.48254-0.14896-0.30301-0.61389-0.46411-0.64905-0.77309 0.26136-0.45384 0.92392-0.4009 1.1565-0.85066 0.78848-2.3646 0.91043-2.005 0.91252-2.5993-0.02482-1.1359-0.26032-1.8863-0.23543-2.924 0.08573-0.81749 0.2685-1.3787 0.14446-2.196-0.02355-0.19553-0.25112-0.6522-0.25823-0.53978zm-5.8291 5.1544c0.20346-3e-3 0.41857 0.0175 0.6437 0.0722 0.60166 0.1479 1.0676 0.47969 1.2237 0.82177-0.29977 0.23048-0.86384 0.29977-1.4644 0.15293-0.60037-0.14687-1.0666-0.47122-1.2237-0.8133 0.18706-0.1437 0.48149-0.22757 0.82074-0.23363zm4.7263 8e-3c0.33893 6e-3 0.63339 0.089 0.82045 0.23363-0.15692 0.34213-0.62304 0.66569-1.2237 0.81335-0.60029 0.14688-1.1728 0.0775-1.4726-0.1529 0.15714-0.34322 0.63053-0.66654 1.2319-0.81338 0.22442-0.0547 0.44027-0.0839 0.64402-0.0807z" stroke="#000" stroke-width=".14999"/>
   <path d="m60.96 165.6c-0.25718 0.0196-0.51141 0.0672-0.75644 0.14578-0.25109 0.0857-0.49824 0.18812-0.7212 0.33285-0.22334 0.13735-0.38264 0.34817-0.51779 0.56724-0.13044 0.19529-0.25958 0.39584-0.32994 0.62235-0.08363 0.24892-0.1302 0.50933-0.16222 0.76883-0.02378 0.23151-0.03707 0.46514 0.0021 0.69562 0.02887 0.23047 0.11671 0.44955 0.24609 0.64185 0.08887 0.14557 0.19206 0.29453 0.3564 0.36068 0.23678 0.1116 0.50033 0.17669 0.76168 0.18809 0.13335 0.0135 0.24826-0.0715 0.35671-0.1365 0.0558-0.0495 0.12591-0.0836 0.15293-0.15907 0.12412-0.19732 0.25321-0.39788 0.29557-0.63044 0.02984-0.26147 0.0291-0.52608 0.05895-0.78878 0.01749-0.20349 0.14475-0.41857 0.36174-0.45061 0.27488-0.0722 0.5352 0.10853 0.70694 0.30803 0.16748 0.19626 0.33181 0.40005 0.44453 0.63367 0.13012 0.22934 0.21585 0.47834 0.28199 0.73261 0.0672 0.24818 0.14687 0.49506 0.17251 0.75141 0.03127 0.2553 0.04448 0.51173 0.06217 0.76809 0.0029 0.26543 0.02572 0.5292 0.063 0.79161 0.04019 0.2604 0.08467 0.52073 0.12803 0.78031 0.03413 0.20346 0.11909 0.39367 0.17886 0.59002 0.08469 0.22434 0.18812 0.43942 0.30083 0.65011 0.14684 0.21719 0.3048 0.42698 0.47837 0.62227 0.17489 0.20873 0.36195 0.40508 0.55724 0.59529 0.18391 0.16221 0.36489 0.3297 0.57359 0.4599 0.32041 0.20579 0.63767 0.4164 0.96234 0.61589 0.2304 0.13335 0.46088 0.26459 0.69345 0.39585 0.2553 0.11483 0.50536 0.24606 0.76065 0.36301 0.25215 0.11459 0.49718 0.24577 0.75644 0.3429 0.24082 0.0963 0.48157 0.19761 0.73686 0.25235 0.24503 0.0527 0.49509 0.10748 0.74724 0.0961 0.22966 0 0.4527-0.0526 0.66458-0.13649 0.21802-0.0982 0.40005-0.28208 0.49821-0.50115 0.09925-0.23887 0.08784-0.51488-0.0071-0.75351-0.07147-0.20558-0.20796-0.40193-0.40643-0.50032-0.23437-0.1188-0.50001-0.15587-0.75218-0.22202-0.26062-0.0775-0.52522-0.14475-0.7824-0.23257-0.25633-0.0746-0.49395-0.19552-0.73686-0.30503-0.26061-0.11354-0.50557-0.26041-0.75771-0.39053-0.23971-0.12089-0.46202-0.27276-0.6903-0.4146-0.23154-0.1437-0.44664-0.312-0.65543-0.4866-0.20455-0.1728-0.40928-0.3588-0.55081-0.58814-0.13126-0.22651-0.24188-0.46934-0.31096-0.72263-0.0653-0.25823-0.06215-0.52596-0.09411-0.78944-0.03923-0.41333-0.07334-0.82793-0.12517-1.2401-0.0381-0.27413-0.07829-0.54795-0.14655-0.81571-0.07043-0.27276-0.16327-0.53737-0.24-0.80804-0.07829-0.23574-0.18891-0.45802-0.30689-0.67492-0.13126-0.21699-0.24691-0.44453-0.3969-0.64905-0.13629-0.20161-0.29236-0.38865-0.45564-0.56753-0.16957-0.18892-0.3741-0.34216-0.57891-0.48975-0.20873-0.14684-0.42989-0.27384-0.66249-0.37732-0.2273-0.0899-0.46305-0.15293-0.70064-0.20979-0.16851-0.0424-0.34208-0.0445-0.51488-0.032z" stroke-width=".26458"/>
  </g>
  <path d="m73.534 162.89c1.4812-0.28943 2.2871-0.40111 4.8493 0.52282m-4.2529 0.0547c1.4314-0.0537 2.4866 0.36592 3.8777 1.2649m-5.0943-1.1863c1.697 0.0495 2.9787 0.36698 4.1477 1.6465m-6.4628-0.98716c-1.7674-0.16748-3.3208-0.12486-4.8204 0.85066m5.2276-1.234c-2.286-0.1963-3.7507-0.87339-6.1111 0.245m5.5179-0.59954c-1.9523-0.31515-2.7728-0.75142-5.2771-0.35745" fill="none" stroke="#000" stroke-linecap="round" stroke-width=".31747"/>
 </g>
 <rect transform="matrix(1.8649 0 0 1.8649 -27.708 122.9)" x="46.321" y="-33.214" width="11.119" height="2.1075" fill="#ff7d00" filter="url(#filter1830)" opacity=".55897" stroke="#110800" stroke-linecap="round" stroke-linejoin="round" stroke-width=".32"/>
 <g transform="matrix(-.52154 0 0 .52154 159.26 -57.65)" fill-rule="evenodd">
  <path d="m153.11 190.42h39.732v39.598h-39.732z" fill="#ff7d00" fill-rule="evenodd" stroke="#000" stroke-linejoin="round" stroke-width="1.3012"/>
  <g fill="#fff2e5">
   <g stroke="#000" stroke-width=".91554">
    <path d="m178.85 222.4 4.6348 2.4097c1.0972 0.95436 0.82325 1.604 1.5857 2.1944 0.75147 0.69068 1.2305 0.80275 1.6773 0.15235 0.35523-0.73976 0.28418-1.4795 0.39551-2.2852 0.51856-0.49805 0.94484-0.74708 1.3726-1.2451 0.46729-0.52003 0.44679-1.0327-0.27466-1.399-0.6006-0.2417-1.169-0.36622-1.8897-0.15381-0.4585 0.14649-0.9463 0.22705-1.5557-0.0293l-5.001-2.3218-14.209-4.9293c-1.9116-0.93019-3.4996-1.626-5.3907-2.6734-1.0269-0.813-0.69581-1.7432-1.9395-2.4976-0.54713-0.271-0.94264-0.39551-1.3806 0.35157-0.27979 0.65919-0.25782 1.3623-0.3003 2.0435-0.48927 0.52735-1.043 0.83497-1.4451 1.4868-0.58229 0.93752 0.3003 1.2451 0.77638 1.3623 1.3506 0.33692 1.8384-0.271 3.0835-0.022 2.4207 1.1279 4.8634 2.2998 7.1998 3.4498z" stroke-linejoin="round"/>
    <path d="m179.88 218.19 6.9215-3.2623c1.311-0.51856 1.4942 0.21241 2.6514 0 0.88478-0.0103 1.6165-0.35596 1.5557-1.1887-0.44678-0.66138-0.86427-1.0767-1.6465-1.7996 0.041-0.77198-0.10255-1.5139-0.39552-2.2559-0.30542-0.43726-0.85475-0.62989-1.6773 0.15235-0.83351 0.62989-0.56983 1.4736-1.6165 2.3474-1.7066 0.84963-3.2623 1.5967-5.1527 2.5342l-14.392 4.9732c-1.6663 0.88625-3.1802 1.7066-5.0904 2.439-1.5557 0.38819-1.4942-0.56397-3.3838 0.0659-0.53981 0.42481-0.52955 1.0401-0.0923 1.4942 0.50758 0.49805 0.86427 0.813 1.311 1.2525 0.1421 0.62989 0.1626 1.1719 0.2439 1.9263 0.3047 0.92286 0.97634 0.87159 1.555 0.42481 0.25415-0.31495 0.5691-0.6006 0.76173-0.94484 0.26368-0.45411 0.55958-0.97414 0.91554-1.399l4.6033-2.439z" stroke-linejoin="round"/>
    <path d="m163.69 208.43c-1.4019-1.3623-2.3804-3.7281-2.5174-6.2806-0.14648-2.8125 1.3345-5.6031 3.5552-7.1998 2.4881-1.7512 6.6476-2.2347 9.2345-2.1028 1.752 1e-3 5.6544 0.90968 7.0328 1.9358 2.417 1.7578 3.712 4.251 3.8013 7.0936 0.1333 2.855-1.0694 5.0303-2.5416 6.3868"/>
   </g>
   <path d="m163.83 207.95s-1.6941 5.1292 1.5703 6.0038l1.1902 6.86c1.2525 5.3995 11.309 5.4032 12.788 0l1.1865-6.86c3.3472-0.89357 1.648-6.006 1.648-6.006z" stroke-width=".073243"/>
  </g>
  <g stroke="#000">
   <g stroke-width=".91554">
    <path d="m163.78 200.43c-0.56764 0.49658-0.49586 1.2429-0.39405 2.3584 0.0806 0.84596 0.6211 1.6795 0.64967 2.4536 0.19775 1.6311-0.28419 3.2637-0.51124 4.5982-0.15601 1.5322 0.28418 2.8528 0.85182 3.3633 0.56763 0.50391 1.3008 0.71265 2.0706 0.94777 0.69948 0.1831 1.062 0.50537 1.5916 0.90089 0.62989 0.67384 0.78078 1.2232 0.76613 1.9043m13.462-16.56c0.56763 0.49806 0.49585 1.2451 0.39404 2.3584-0.0806 0.84962-0.6211 1.6846-0.64966 2.4536-0.19776 1.6333 0.28418 3.2666 0.51123 4.5997 0.15601 1.5381-0.28418 2.8565-0.85182 3.3692-0.56763 0.50538-1.607 0.77638-2.0706 0.94484-0.53981 0.19043-1.0928 0.53467-1.5908 0.93019-0.60059 0.57862-0.78077 1.1939-0.76686 1.875" fill="none"/>
    <path d="m165.4 213.96c0.50831 1.2305 1.0474 2.4288 1.0986 3.6893-0.23438 1.0166-0.16334 2.2156 0.0908 3.1714 0.3252 1.3111 1.5952 2.8653 2.866 3.3838 1.2964 0.47242 2.1094 0.59474 3.567 0.59474" fill="none"/>
    <path d="m180.57 213.96c-0.50831 1.2305-1.0474 2.4288-1.0972 3.6893 0.23438 1.0159 0.1626 2.2156-0.0915 3.1714-0.3296 1.3111-1.6114 2.8199-2.8858 3.3384-1.2744 0.52003-2.0874 0.64454-3.5376 0.64454" fill="#fff2e5"/>
   </g>
   <path d="m172.73 210.2c-0.71046 0.54053-0.86867 0.72218-1.2612 1.3198-0.14209 0.23072-0.40724 0.76906-0.47975 1.1309-0.0732 0.36182-0.12671 0.88624-0.12597 1.1646 7e-3 0.94117 0.30029 1.5308 0.62989 1.511 0.29297-0.0366 0.66651-0.34425 1.2305-1.0327m0.52002-4.0796c0.71046 0.53467 0.8716 0.71778 1.2598 1.3184 0.14648 0.22706 0.41016 0.76906 0.4834 1.128 0.0733 0.35889 0.13184 0.88625 0.12452 1.1646 0 0.93751-0.3003 1.5308-0.62257 1.5088-0.29297-0.0366-0.66652-0.34424-1.2305-1.0327m-6.5553-8.2252c0.98878-0.17579 1.9409-0.28565 2.9297-0.39552 1.2891-0.32959 1.941 1.1426 1.5894 2.2559-0.44679 0.98146-1.0767 1.8457-1.7945 2.6807-0.55665 0.6299-1.2232 0.72511-1.8604 0.51271-0.51271-0.14649-0.98146-0.46144-1.4942-1.1939-0.21973-0.62989-0.41016-0.95949-0.69581-1.7359-0.22119-0.7251 0.12452-1.8018 1.3404-2.1387zm12.605 0c-0.98146-0.17579-1.941-0.28565-2.9224-0.39552-1.2891-0.32959-1.941 1.1426-1.582 2.2559 0.44678 0.98146 1.0767 1.8457 1.8018 2.6807 0.56397 0.6299 1.2305 0.72511 1.8604 0.51271 0.5127-0.14649 0.98878-0.46144 1.4942-1.1939 0.22706-0.62989 0.41749-0.95949 0.70314-1.7359 0.22705-0.7251-0.12451-1.8018-1.3404-2.1387z" stroke-width=".073243pt"/>
   <path d="m166.67 214.51c0.41749 0.97707 0.54567 1.3477 0.84596 2.3233 0.25636 0.90089 0.35157 1.4502 0.50904 2.729m11.233-5.105c-0.41749 0.98146-0.5464 1.3477-0.84743 2.3218-0.25635 0.90089-0.3501 1.4502-0.5083 2.732" fill="none" stroke-width=".45777"/>
   <path d="m168.45 216.8c1.0767 0.66139 2.9414 0.7632 4.6107 0.73244 1.8604-9e-3 3.452-0.14283 4.4971-0.77638m-8.7306 1.7688c1.1887 0.74708 2.5877 1.0034 4.1983 0.94338 1.67-0.041 2.9517-0.18165 4.1016-0.96462" fill="none" stroke-width=".36622"/>
   <path d="m167.97 219.43c1.2715 1.5344 3.0469 1.8018 5.0662 1.8545 2.1607 0.0791 4.3331-0.78004 4.8926-1.8531" fill="#fff2e5" stroke-width=".45777"/>
   <path d="m168.81 217.13-0.0293 3.0176m1.0203-2.6976-0.0146 3.2315m1.1133-3.0945-0.0315 3.3838m1.0225-3.3077-0.0161 3.43m1.128-3.3985v3.4292m1.0672-3.4498 0.0147 3.4278m0.9463-3.523 0.0293 3.3692m1.084-3.5523 0.0146 3.23m0.99098-3.6329 0.0293 3.0469" fill="#fff2e5" stroke-width=".36622"/>
  </g>
 </g>
 <g transform="matrix(-1.9992 .39146 .39146 1.9992 169.03 69.634)" fill-rule="evenodd" stroke="#000" stroke-linecap="round" stroke-linejoin="round" stroke-width=".47978">
  <path d="m36.026-27.923v-4.4112l-1.4112-2.3689-1.4144 2.3689v4.4112z" fill="#808080" stop-color="#000000"/>
  <rect transform="scale(1,-1)" x="36.026" y="29.597" width="12.924" height="1.4414" fill="#e9c6af" fill-rule="evenodd" stop-color="#000000" style="font-variation-settings:normal"/>
 </g>
 <rect transform="matrix(1.9701 0 0 1.9701 -33.162 96.447)" x="46.321" y="-33.214" width="11.119" height="2.1075" fill="#b3b318" filter="url(#filter2131)" opacity=".58974" stroke="#110800" stroke-linecap="round" stroke-linejoin="round" stroke-width=".32"/>
 <g transform="matrix(-2.173 0 0 2.173 325.83 -483.97)" fill-rule="evenodd">
  <path d="m112.86 237.81 5.2983-9.2298 5.2992 9.2298z" fill="#ff0" stroke="#000" stroke-linejoin="round" stroke-width=".347"/>
  <g stroke-width=".23897">
   <path d="m117.8 235.31-0.86172 1.5019c0.78504 0.45547 1.6776 0.45547 2.4616 0l-0.8617-1.5019-0.0167 0.0112c-0.0205 0.0113-0.0421 0.0225-0.0643 0.0308-0.0224 0.0103-0.044 0.0186-0.0684 0.0261-0.0232 7e-3 -0.0456 0.0131-0.07 0.0186-0.0232 6e-3 -0.0476 9e-3 -0.0727 0.0112-0.0243 2e-3 -0.0494 5e-3 -0.0757 5e-3 -0.0251 0-0.0495-3e-3 -0.0755-5e-3 -0.0234-2e-3 -0.0494-6e-3 -0.0739-0.0112-0.0232-5e-3 -0.0476-0.0112-0.07-0.0186-0.0242-7e-3 -0.0457-0.0139-0.0682-0.0261-0.0224-8e-3 -0.0437-0.0196-0.0643-0.0308-7e-3 -3e-3 -0.0122-7e-3 -0.0186-0.0112z"/>
   <path d="m116.93 232.52c-0.78409 0.45643-1.2293 1.2331-1.2293 2.1452h1.7232c0-0.0263 2e-3 -0.0523 4e-3 -0.0757 9.3e-4 -0.0241 7e-3 -0.0504 0.0102-0.0746 6e-3 -0.0234 0.0122-0.0485 0.0196-0.0709 7e-3 -0.0234 0.0141-0.0459 0.0253-0.0672 9e-3 -0.0224 0.0205-0.0459 0.0315-0.0654 0.0113-0.0206 0.0234-0.0411 0.0366-0.0617 0.0129-0.0196 0.027-0.0382 0.0421-0.0568 0.0148-0.0186 0.0316-0.0354 0.0485-0.0524 0.0167-0.0158 0.0344-0.0325 0.053-0.0476 0.0186-0.0148 0.0376-0.0299 0.0571-0.043l0.0438-0.028z"/>
   <path d="m119.4 232.52-0.8617 1.5019c0.0151 0.0103 0.0292 0.0167 0.044 0.028 0.0206 0.0131 0.0392 0.0282 0.0569 0.043 0.0186 0.015 0.0356 0.0318 0.0542 0.0476 0.0167 0.017 0.0335 0.0356 0.0476 0.0524 0.0151 0.0186 0.0299 0.0373 0.0421 0.0568 0.0131 0.0206 0.027 0.0411 0.0373 0.0617 0.0112 0.0196 0.0225 0.043 0.0318 0.0654 9e-3 0.0213 0.0177 0.0438 0.0251 0.0672 8e-3 0.0241 0.0131 0.0476 0.0188 0.0709 5e-3 0.0242 9e-3 0.0476 0.0101 0.0746 3e-3 0.0234 5e-3 0.0494 5e-3 0.0757h1.7223c-3e-3 -0.91212-0.44903-1.6888-1.2331-2.1452z"/>
   <path d="m118.66 234.67c0 0.27245-0.22036 0.49469-0.49281 0.49469-0.27075 0-0.49103-0.22224-0.49103-0.49469 0-0.27266 0.22028-0.4949 0.49103-0.4949 0.27245 0 0.49281 0.22224 0.49281 0.4949z"/>
  </g>
 </g>
</svg>